<svg width="16" height="17" viewBox="0 0 16 17" fill="none" xmlns="http://www.w3.org/2000/svg">
<path d="M15.2322 3.09091H11.8232V0.772727C11.8232 0.567787 11.7513 0.371241 11.6235 0.226327C11.4956 0.0814121 11.3222 0 11.1413 0H5.68679C5.50596 0 5.33254 0.0814121 5.20467 0.226327C5.07681 0.371241 5.00497 0.567787 5.00497 0.772727V3.09091H1.59588C1.41505 3.09091 1.24163 3.17232 1.11376 3.31724C0.985897 3.46215 0.914063 3.6587 0.914062 3.86364C0.914063 4.06858 0.985897 4.26512 1.11376 4.41004C1.24163 4.55495 1.41505 4.63636 1.59588 4.63636H2.35747L3.64679 16.3231C3.66739 16.5099 3.74749 16.6818 3.87204 16.8065C3.99658 16.9311 4.157 16.9999 4.32315 17H12.505C12.6711 16.9999 12.8315 16.9311 12.9561 16.8065C13.0806 16.6818 13.1607 16.5099 13.1813 16.3231L14.4707 4.63636H15.2322C15.4131 4.63636 15.5865 4.55495 15.7144 4.41004C15.8422 4.26512 15.9141 4.06858 15.9141 3.86364C15.9141 3.6587 15.8422 3.46215 15.7144 3.31724C15.5865 3.17232 15.4131 3.09091 15.2322 3.09091ZM6.36861 1.54545H10.4595V3.09091H6.36861V1.54545ZM11.9029 15.4545H4.9252L3.73202 4.63636H13.0961L11.9029 15.4545Z" fill="#E4E4E4"/>
</svg>
