<svg width="21" height="22" viewBox="0 0 21 22" fill="none" xmlns="http://www.w3.org/2000/svg">
<path fill-rule="evenodd" clip-rule="evenodd" d="M18.624 0.486618C19.056 0.966431 19.1351 1.6735 18.8193 2.23343L15.2021 8.64783L20.2654 11.6408C20.7375 11.9198 21.0202 12.4417 20.9989 12.9949C20.9776 13.548 20.6558 14.0404 20.1642 14.2723L4.0687 21.8635C3.49317 22.1349 2.80801 21.9932 2.376 21.5134C1.94398 21.0336 1.86493 20.3265 2.1807 19.7666L5.79795 13.3522L0.734551 10.3592C0.262547 10.0802 -0.0201693 9.55827 0.00112349 9.00513C0.0224157 8.452 0.344179 7.95958 0.835849 7.72769L16.9313 0.136539C17.5068 -0.134898 18.192 0.00680456 18.624 0.486618Z" fill="#FEFEFF"/>
</svg>
